<?xml version="1.0" encoding="utf-8"?>
<!-- Generator: Adobe Illustrator 25.4.1, SVG Export Plug-In . SVG Version: 6.00 Build 0)  -->
<svg version="1.1" id="Layer_1" xmlns="http://www.w3.org/2000/svg" xmlns:xlink="http://www.w3.org/1999/xlink" x="0px" y="0px"
	 viewBox="0 0 512 512" style="enable-background:new 0 0 512 512;" xml:space="preserve">
<style type="text/css">
	.st0{fill-rule:evenodd;clip-rule:evenodd;fill:#FFF69B;}
	.st1{fill:#6666FF;}
</style>
<g>
	<path class="st0" d="M311,333c0-20.5,2.9-26.6,32.5-65.4c55-70.5,2.8-177.5-87.5-176.6c-90.3-0.9-142.5,106.1-87.5,176.6
		c29.6,38.8,32.5,44.9,32.5,65.4L311,333z"/>
	<g>
		<path class="st1" d="M311,323H201c-5.5,0-10,4.5-10,10v66c0,17.6,14.4,32,32,32h23v71c0,5.5,4.5,10,10,10c5.5,0,10-4.5,10-10v-71
			h23c17.6,0,32-14.4,32-32v-66C321,327.5,316.6,323,311,323L311,323z M301,343v24h-90v-24H301z M289,411h-66c-6.6,0-12-5.4-12-12
			v-12h90v12C301,405.6,295.6,411,289,411z"/>
		<path class="st1" d="M256,151c-24,0-46.6,9.4-63.6,26.4c-3.9,3.9-3.9,10.2,0,14.1s10.2,3.9,14.1,0c26.1-27.2,72.9-27.2,99,0
			c2,2,4.5,2.9,7.1,2.9c8.7,0.2,13.4-10.9,7.1-17.1C302.7,160.4,280.1,151,256,151L256,151z"/>
		<path class="st1" d="M284.3,222.7c8.7,0.2,13.4-10.9,7.1-17.1c-18.6-19.4-52.1-19.4-70.7,0c-9,9.7,4.5,23.2,14.1,14.1
			c5.7-5.7,13.2-8.8,21.2-8.8s15.5,3.1,21.2,8.8C279.2,221.7,281.8,222.7,284.3,222.7L284.3,222.7z"/>
		<path class="st1" d="M246,241c0,5.5,4.5,10,10,10c13.2-0.5,13.2-19.5,0-20C250.5,231,246,235.5,246,241L246,241z"/>
		<path class="st1" d="M256,56c5.5,0,10-4.5,10-10V10c0-5.5-4.5-10-10-10s-10,4.5-10,10v36C246,51.5,250.5,56,256,56z"/>
		<path class="st1" d="M356.5,26.9c-4.8-2.8-10.9-1.1-13.7,3.7l-18,31.2c-2.8,4.8-1.1,10.9,3.7,13.7c4.7,2.7,10.9,1.2,13.7-3.7
			l18-31.2C363,35.8,361.3,29.7,356.5,26.9z"/>
		<path class="st1" d="M390.3,133.5c1.7,0,3.4-0.4,5-1.3l31.2-18c11.2-7,1.7-23.5-10-17.3l-31.2,18
			C376.4,120,380.2,133.5,390.3,133.5z"/>
		<path class="st1" d="M447,191h-36c-13.2,0.5-13.3,19.5,0,20h36C460.3,210.5,460.3,191.5,447,191z"/>
		<path class="st1" d="M426.4,287.8l-31.2-18c-4.8-2.8-10.9-1.1-13.7,3.7s-1.1,10.9,3.7,13.7l31.2,18c1.6,0.9,3.3,1.3,5,1.3
			C431.5,306.5,435.3,293,426.4,287.8L426.4,287.8z"/>
		<path class="st1" d="M169.2,30.6c-7-11.2-23.5-1.7-17.3,10l18,31.2c7,11.3,23.5,1.7,17.3-10C187.2,61.8,169.2,30.6,169.2,30.6
			L169.2,30.6z"/>
		<path class="st1" d="M126.8,114.8l-31.2-18c-4.8-2.8-10.9-1.1-13.7,3.7s-1.1,10.9,3.7,13.7l31.2,18c1.6,0.9,3.3,1.3,5,1.3
			C131.9,133.5,135.7,120,126.8,114.8z"/>
		<path class="st1" d="M111,201c0-5.5-4.5-10-10-10H65c-5.5,0-10,4.5-10,10s4.5,10,10,10h36C106.6,211,111,206.5,111,201z"/>
		<path class="st1" d="M116.8,269.8l-31.2,18c-11.3,7-1.6,23.5,10,17.3l31.2-18C138,280.2,128.5,263.6,116.8,269.8z"/>
	</g>
</g>
</svg>
