<?xml version="1.0" encoding="utf-8"?>
<!-- Generator: Adobe Illustrator 25.4.1, SVG Export Plug-In . SVG Version: 6.00 Build 0)  -->
<svg version="1.1" id="Capa_1" xmlns="http://www.w3.org/2000/svg" xmlns:xlink="http://www.w3.org/1999/xlink" x="0px" y="0px"
	 viewBox="0 0 512 512" style="enable-background:new 0 0 512 512;" xml:space="preserve">
<style type="text/css">
	.st0{fill:#99CC66;}
	.st1{fill:#FF6633;}
	.st2{fill:#6666FF;}
</style>
<g>
	<g>
		<path class="st0" d="M355.7,184.9c16,21.8,25.5,48.7,25.5,77.8c0,72.8-59.3,132-132.1,132s-132.1-59.2-132.1-132
			s59.3-132,132.1-132c29.4,0,56.6,9.6,78.6,25.9l38.1-38C333.8,92.8,293.2,77.3,249,77.3c-102.3,0-185.6,83.2-185.6,185.4
			S146.7,448,249,448s185.6-83.2,185.6-185.4c0-43.8-15.3-84.1-40.8-115.8L355.7,184.9z"/>
		<path class="st1" d="M253.3,259c7.5-23.5,19.8-45.2,36.1-63.7c-11.8-7.1-25.7-11.2-40.4-11.2c-43.4,0-78.7,35.3-78.7,78.6
			c0,43.3,35.3,78.6,78.7,78.6s78.7-35.3,78.7-78.6c0-14.4-3.9-28-10.8-39.6C298.5,239.2,276.8,251.5,253.3,259L253.3,259z"/>
	</g>
	<g>
		<path class="st2" d="M509.1,97.6c2.7-2.7,3.6-6.7,2.4-10.4s-4.5-6.2-8.3-6.6L462.7,76l-26.1-26.1l-4.6-40.4c-0.4-3.8-3-7-6.6-8.3
			c-3.6-1.3-7.7-0.3-10.4,2.4L375.4,43c-1.1,1.1-2.1,2.2-3.1,3.4C334.9,25.1,292.4,13.9,249,13.9c-66.5,0-129.1,25.9-176.1,72.9
			C25.9,133.7,0,196.2,0,262.7s25.9,128.9,72.9,175.9c47,47,109.6,72.9,176.1,72.9s129.1-25.9,176.1-72.9
			c47-47,72.9-109.5,72.9-175.9c0-43-11.1-85.1-32.2-122.3c1.2-1,2.5-2.1,3.6-3.2L509.1,97.6z M455.4,122.9
			c-5.1,5.1-12.2,7.6-19.4,6.8l-9.8-1.1l32.9-32.9l21.1,2.4L455.4,122.9z M318.4,208c-13.7,13.7-29.8,25-47.4,33.3
			c8.3-17.5,19.6-33.6,33.3-47.3L428.5,70l14,14L318.4,208z M244.6,253.6C244.6,253.6,244.5,253.6,244.6,253.6l-10.7,10.7
			c-3.9,3.9-3.9,10.2,0,14.1c2,2,4.5,2.9,7.1,2.9c2.6,0,5.1-1,7.1-2.9l10.7-10.7c0,0,0,0,0.1-0.1c27.7-9.2,53.2-25,73.8-45.6
			l21.6-21.6c11.2,18.8,17,40,17,62.1c0,67.3-54.8,122-122.1,122s-122.1-54.7-122.1-122s54.8-122,122.1-122c22.4,0,44,6,62.9,17.5
			l-21.7,21.7C269.6,200.5,253.8,225.9,244.6,253.6L244.6,253.6z M414.4,32.3l2.4,21.1l-32.9,32.9l-1.1-9.8
			c-0.8-7.2,1.6-14.2,6.8-19.3L414.4,32.3z M478.1,262.7c0,126.1-102.7,228.8-229,228.8S20,388.8,20,262.7
			C20,136.5,122.7,33.9,249,33.9c40.4,0,79.9,10.6,114.6,30.6c-1,4.6-1.3,9.4-0.7,14.2v0l2.9,25.6l-39.3,39.3
			c-23.1-15-49.7-23-77.4-23c-78.4,0-142.1,63.7-142.1,142s63.8,142,142.1,142s142.1-63.7,142.1-142c0-27.4-7.8-53.7-22.5-76.6
			l39.5-39.4l25.6,2.9v0c1.7,0.2,3.3,0.3,5,0.3c3.1,0,6.1-0.3,9-0.9C467.6,183.4,478.1,222.6,478.1,262.7z"/>
	</g>
</g>
</svg>
