<?xml version="1.0" encoding="utf-8"?>
<!-- Generator: Adobe Illustrator 25.4.1, SVG Export Plug-In . SVG Version: 6.00 Build 0)  -->
<svg version="1.1" id="katman_1" xmlns="http://www.w3.org/2000/svg" xmlns:xlink="http://www.w3.org/1999/xlink" x="0px" y="0px"
	 viewBox="0 0 93.4 85" style="enable-background:new 0 0 93.4 85;" xml:space="preserve">
<style type="text/css">
	.st0{fill:#FFFFFF;}
	.st1{fill:none;}
	.st2{opacity:0.55;}
	.st3{fill-opacity:0;}
	.st4{fill:#FBB355;}
	.st5{fill:#FA6663;}
</style>
<rect x="-1.2" class="st0" width="95.7" height="85"/>
<rect x="-78.3" y="-49.2" class="st1" width="250" height="500"/>
<g transform="translate(106.50000011983157,68.68579864501953)">
	<g>
		<g transform="translate(7.25,0)" class="st2">
			<g>
				<rect x="-108.4" y="-67.4" class="st3" width="82.7" height="82.8"/>
				<path class="st4" d="M-44.9-28.7c-4.7,0-9.4,0-14.1,0c-3.4,0-5.1-1.5-5.1-4.5c0-2.9,1.8-4.8,5.1-4.8c9.4-0.1,18.9-0.1,28.3,0
					c3,0,5.1,2.1,5.1,4.7c0,2.8-1.8,4.5-5.1,4.5C-35.5-28.7-40.2-28.8-44.9-28.7L-44.9-28.7z M-89-14h-14.4c-3,0-4.9-1.7-5-4.4
					c-0.1-2.5,1.8-4.7,4.3-4.8c0.1,0,0.2,0,0.4,0c9.7-0.1,19.4-0.1,29.1,0c2.7,0,4.9,2.1,4.9,4.7c0,0.1,0,0.1,0,0.2
					c-0.2,2.5-2.2,4.3-5.2,4.3C-79.6-14-84.3-14-89-14z M-64.2-3.9v-14.4c0-2.9,1.9-4.9,4.5-4.9c2.6,0,4.5,1.8,4.5,4.6
					c0.1,9.8,0.1,19.6,0,29.4c0,3.1-1.9,4.7-4.7,4.6c-2.8-0.1-4.3-1.8-4.3-4.9C-64.2,5.7-64.2,0.9-64.2-3.9z M-69.6-48v13.6
					c0,2.3-0.7,4.3-2.9,5.3c-3.2,1.5-6.3-0.7-6.4-4.3c0-9.6,0-19.2,0-28.9c0-3.1,1.6-4.9,4.3-5.1c2.5-0.2,4.8,1.9,4.9,4.9
					c0.2,4,0.1,8,0.1,12C-69.6-49.7-69.6-48.9-69.6-48z"/>
				<path class="st5" d="M-81.6,0.8c-2.4,0-4.8,0.1-7.2,0c-3-0.1-4.7-2-4.7-4.7c0-2.7,1.8-4.6,4.7-4.7c4.7-0.1,9.4-0.1,14.2,0
					c2.9,0.1,5.1,2.3,5,4.8c-0.1,2.5-2.2,4.4-5,4.5C-77.1,0.9-79.4,0.8-81.6,0.8z M-84.4-40.6c0,2.3,0.1,4.6,0,6.9
					c-0.2,3.2-2.1,5-4.8,4.9c-2.9-0.1-4.4-1.8-4.4-5.1c0-4.5,0-9.1,0-13.6c0-3,1.6-5,4.2-5.2c2.6-0.2,4.8,1.9,5,4.8
					C-84.3-45.4-84.4-43-84.4-40.6z M-52.4-43.5h-7.5c-2.4,0-3.9-1.3-4.3-3.6c-0.5-2.6,0.6-4.4,3-5.2c0.7-0.3,1.4-0.4,2.1-0.5
					c4.5,0,9.1-0.1,13.6,0c3.4,0.1,5.3,2.3,5,5.2c-0.2,2.4-1.7,3.9-4.2,4C-47.2-43.4-49.8-43.5-52.4-43.5z M-40.4-11.1
					c0,2.4,0.1,4.8,0,7.2c-0.1,2.7-1.8,4.5-4.2,4.7c-2.4,0.2-4.6-1.3-4.7-4c-0.3-5.2-0.3-10.4-0.1-15.7c0-2.4,2-4.4,4.4-4.4
					c0.1,0,0.2,0,0.3,0c2.5,0.2,4.2,2.1,4.2,4.9C-40.4-15.9-40.4-13.5-40.4-11.1z"/>
			</g>
		</g>
		<g transform="translate(0,27.67165756225586)">
			<g>
				<g transform="scale(1)">
					<g>
						<path d="M-89.6-74.7h-2.1v4.2c0,0.9-0.3,1.6-0.9,2.2l0,0c-0.6,0.6-1.4,0.9-2.2,0.9l0,0h-6.3c-0.9,0-1.6-0.3-2.2-0.9l0,0
							c-0.6-0.6-0.9-1.4-0.9-2.2l0,0v-4.2h-2.1v4.2c0,1.5,0.5,2.7,1.5,3.7l0,0c1,1,2.3,1.6,3.7,1.6l0,0h2.1v8.4h2.1v-8.4h2.1
							c1.5,0,2.7-0.5,3.7-1.6l0,0c1-1,1.5-2.3,1.5-3.7l0,0V-74.7z M-75.8-56.8h-6.3c-1.5,0-2.7-0.5-3.7-1.5l0,0
							c-1-1-1.5-2.3-1.5-3.7l0,0v-12.7h2.1v12.7c0,0.9,0.3,1.6,0.9,2.2l0,0c0.6,0.6,1.4,0.9,2.2,0.9l0,0h6.3c0.9,0,1.6-0.3,2.2-0.9
							l0,0c0.6-0.6,0.9-1.4,0.9-2.2l0,0v-12.7h2.1v12.7c0,1.5-0.5,2.7-1.5,3.7l0,0C-73.1-57.3-74.3-56.8-75.8-56.8L-75.8-56.8z
							 M-51.4-74.7h-2.1v15l-12.4-15h-2.4v18h2.1v-15l12.4,15h2.4V-74.7z M-37.5-56.8h-6.3c-1.5,0-2.7-0.5-3.7-1.5l0,0
							c-1-1-1.5-2.3-1.5-3.7l0,0v-12.7h2.1v12.7c0,0.9,0.3,1.6,0.9,2.2l0,0c0.6,0.6,1.4,0.9,2.3,0.9l0,0h6.3c0.9,0,1.6-0.3,2.2-0.9
							l0,0c0.6-0.6,0.9-1.4,0.9-2.2l0,0v-12.7h2.1v12.7c0,1.5-0.5,2.7-1.5,3.7l0,0C-34.8-57.3-36.1-56.8-37.5-56.8L-37.5-56.8z
							 M-25.8-72.6h12.7v-2.1h-12.7c-1.2,0-2.2,0.4-3,1.2l0,0c-0.8,0.8-1.2,1.8-1.2,3l0,0v1.1c0,1.2,0.4,2.2,1.2,3l0,0
							c0.8,0.8,1.8,1.2,3,1.2l0,0h8.5c0.6,0,1.1,0.2,1.5,0.6l0,0c0.4,0.4,0.6,0.9,0.6,1.5l0,0v2.1c0,0.6-0.2,1.1-0.6,1.5l0,0
							c-0.4,0.4-0.9,0.6-1.5,0.6l0,0H-30v2.1h12.7c1.2,0,2.2-0.4,3-1.2l0,0c0.8-0.8,1.2-1.8,1.2-3l0,0v-2.1c0-1.2-0.4-2.2-1.2-3l0,0
							c-0.8-0.8-1.8-1.2-3-1.2l0,0h-8.5c-0.6,0-1.1-0.2-1.5-0.6l0,0c-0.4-0.4-0.6-0.9-0.6-1.5l0,0v-1.1c0-0.6,0.2-1.1,0.6-1.5l0,0
							C-26.9-72.4-26.4-72.6-25.8-72.6L-25.8-72.6z"/>
					</g>
					<g transform="translate(0,27.420000076293945)">
						<g transform="scale(1.00522)">
							<path d="M-105.9-62.3v2.6h20.6v-2.6H-105.9z M-105.9-72.6v2.6h20.6v-2.6H-105.9z M-105.9-81.6v2.6h20.6v-2.6H-105.9z
								 M-59.6-81.6h-2.9l-8.6,10.8l-8.6-10.8h-2.9v21.8h2.6v-18.2l9,11.2l9-11.2v18.2h2.6V-81.6z M-42.1-72.6h-12.2v-2.6
								c0-1.1,0.4-2,1.1-2.7l0,0c0.8-0.8,1.7-1.1,2.7-1.1l0,0h11.6v3.2c0,0.9-0.3,1.6-0.9,2.3l0,0C-40.5-72.9-41.2-72.6-42.1-72.6
								L-42.1-72.6z M-36.3-75.8v-5.8h-14.1c-1.8,0-3.3,0.6-4.6,1.9l0,0c-1.3,1.3-1.9,2.8-1.9,4.5l0,0v15.4h2.6V-70h11.6
								c1.1,0,2,0.4,2.7,1.1l0,0c0.8,0.8,1.1,1.7,1.1,2.7l0,0v6.4h2.6v-6.4c0-2-0.8-3.7-2.4-5l0,0C-37.1-72.3-36.3-73.8-36.3-75.8
								L-36.3-75.8z M-33.6-62.3v2.6H-13v-2.6H-33.6z M-33.6-72.6v2.6H-13v-2.6H-33.6z M-33.6-81.6v2.6H-13v-2.6H-33.6z"/>
						</g>
					</g>
				</g>
			</g>
		</g>
	</g>
</g>
</svg>
